# xmcd
#
# Track frame offsets:
#	150
#	10124
#	19795
#	32316
#	43964
#	54665
#	63941
#	74956
#	85758
#	98553
#	108056
#	117151
#
# Disc length: 1713 seconds
#
# Revision: 1
# Processed by: cddbd v1.5.2PL0 Copyright (c) Steve Scherf et al.
# Submitted via: audiograbber 1.83.01
#
DISCID=9306af0c
DTITLE=Chet Atkins - At Home
DYEAR=1958
DGENRE=Instrumental
TTITLE0=Say "Si Si"
TTITLE1=Vilia
TTITLE2=Sophisticated Lady
TTITLE3=Ay-Ay-Ay
TTITLE4=Nagasaki
TTITLE5=Yankee Doodle Dixie
TTITLE6=April In Portugal
TTITLE7=Jungle Drums
TTITLE8=In the Chapel in the Moonlight
TTITLE9=Martha
TTITLE10=Czardas
TTITLE11=You're Just in Love
EXTD=
EXTT0=
EXTT1=
EXTT2=
EXTT3=
EXTT4=
EXTT5=
EXTT6=
EXTT7=
EXTT8=
EXTT9=
EXTT10=
EXTT11=
PLAYORDER=
